<svg width="278" height="288" viewBox="0 0 278 288" fill="none" xmlns="http://www.w3.org/2000/svg">
<path d="M5.22998 147.26H45.067V82.533H5.22998V147.26Z" fill="#08595D"/>
<path d="M45.067 147.26H104.818V50.168H45.068L45.067 147.26ZM104.818 147.26H144.651V82.533H104.818V147.26Z" fill="#08595D"/>
<path d="M64.982 72.572H60C59.3396 72.572 58.7063 72.3097 58.2393 71.8427C57.7723 71.3757 57.51 70.7424 57.51 70.082V65.104C57.51 64.4436 57.7723 63.8103 58.2393 63.3433C58.7063 62.8763 59.3396 62.614 60 62.614H64.978C65.6384 62.614 66.2717 62.8763 66.7387 63.3433C67.2057 63.8103 67.468 64.4436 67.468 65.104V70.082C67.468 70.7424 67.2057 71.3757 66.7387 71.8427C66.2717 72.3097 65.6384 72.572 64.978 72.572H64.982ZM89.882 72.572H84.9C84.2396 72.572 83.6063 72.3097 83.1393 71.8427C82.6723 71.3757 82.41 70.7424 82.41 70.082V65.104C82.41 64.4436 82.6723 63.8103 83.1393 63.3433C83.6063 62.8763 84.2396 62.614 84.9 62.614H89.882C90.5424 62.614 91.1757 62.8763 91.6427 63.3433C92.1097 63.8103 92.372 64.4436 92.372 65.104V70.082C92.372 70.7424 92.1097 71.3757 91.6427 71.8427C91.1757 72.3097 90.5424 72.572 89.882 72.572ZM64.982 92.49H60C59.3401 92.4892 58.7076 92.2265 58.2412 91.7596C57.7749 91.2928 57.513 90.6599 57.513 90V85.022C57.513 84.3616 57.7753 83.7283 58.2423 83.2613C58.7093 82.7943 59.3426 82.532 60.003 82.532H64.982C65.6424 82.532 66.2757 82.7943 66.7427 83.2613C67.2097 83.7283 67.472 84.3616 67.472 85.022V90C67.472 90.6604 67.2097 91.2937 66.7427 91.7607C66.2757 92.2277 65.6424 92.49 64.982 92.49ZM89.882 92.49H84.9C84.2396 92.49 83.6063 92.2277 83.1393 91.7607C82.6723 91.2937 82.41 90.6604 82.41 90V85.022C82.41 84.3616 82.6723 83.7283 83.1393 83.2613C83.6063 82.7943 84.2396 82.532 84.9 82.532H89.882C90.5424 82.532 91.1757 82.7943 91.6427 83.2613C92.1097 83.7283 92.372 84.3616 92.372 85.022V90C92.372 90.6604 92.1097 91.2937 91.6427 91.7607C91.1757 92.2277 90.5424 92.49 89.882 92.49V92.49ZM64.982 112.41H60C59.6728 112.41 59.3489 112.346 59.0466 112.22C58.7444 112.095 58.4698 111.911 58.2386 111.68C58.0073 111.449 57.824 111.174 57.699 110.871C57.5739 110.569 57.5097 110.245 57.51 109.918V104.937C57.51 104.277 57.7723 103.643 58.2393 103.176C58.7063 102.709 59.3396 102.447 60 102.447H64.978C65.6384 102.447 66.2717 102.709 66.7387 103.176C67.2057 103.643 67.468 104.277 67.468 104.937V109.914C67.4681 110.241 67.4038 110.565 67.2787 110.867C67.1537 111.169 66.9703 111.444 66.739 111.675C66.5078 111.907 66.2333 112.09 65.9311 112.215C65.6289 112.341 65.3051 112.405 64.978 112.405L64.982 112.41ZM89.882 112.41H84.9C84.5728 112.41 84.2489 112.346 83.9466 112.22C83.6444 112.095 83.3698 111.911 83.1386 111.68C82.9073 111.449 82.724 111.174 82.599 110.871C82.4739 110.569 82.4097 110.245 82.41 109.918V104.937C82.41 104.277 82.6723 103.643 83.1393 103.176C83.6063 102.709 84.2396 102.447 84.9 102.447H89.882C90.5424 102.447 91.1757 102.709 91.6427 103.176C92.1097 103.643 92.372 104.277 92.372 104.937V109.914C92.3721 110.241 92.3078 110.565 92.1827 110.867C92.0577 111.169 91.8743 111.444 91.643 111.675C91.4118 111.907 91.1373 112.09 90.8351 112.215C90.5329 112.341 90.2091 112.405 89.882 112.405V112.41ZM64.986 147.26H84.9V124.855H64.986V147.26ZM17.68 137.305H32.617V117.387H17.68V137.305ZM17.68 107.428H32.617V92.49H17.68V107.428ZM117.264 137.305H132.205V117.387H117.265L117.264 137.305ZM117.264 107.428H132.205V92.49H117.265L117.264 107.428Z" fill="#90DCF3"/>
<path d="M77.432 42.687C71.941 42.68 67.491 38.231 67.484 32.739C67.484 32.0815 67.7452 31.451 68.2101 30.9861C68.675 30.5212 69.3055 30.26 69.963 30.26C70.6205 30.26 71.251 30.5212 71.7159 30.9861C72.1808 31.451 72.442 32.0815 72.442 32.739C72.4418 33.726 72.7343 34.6908 73.2825 35.5116C73.8307 36.3323 74.6099 36.972 75.5217 37.3499C76.4335 37.7277 77.4369 37.8267 78.4049 37.6342C79.3729 37.4418 80.2621 36.9666 80.9601 36.2688C81.6581 35.571 82.1334 34.6819 82.326 33.7139C82.5187 32.7459 82.4199 31.7425 82.0423 30.8306C81.6646 29.9188 81.025 29.1394 80.2044 28.591C79.3838 28.0427 78.419 27.75 77.432 27.75C75.4647 27.75 73.5415 27.1666 71.9058 26.0736C70.27 24.9806 68.995 23.4271 68.2422 21.6096C67.4893 19.792 67.2923 17.792 67.6761 15.8624C68.0599 13.9329 69.0073 12.1605 70.3984 10.7694C71.7895 9.3783 73.5619 8.43094 75.4914 8.04714C77.421 7.66333 79.421 7.86031 81.2386 8.61318C83.0561 9.36604 84.6096 10.641 85.7026 12.2768C86.7956 13.9125 87.379 15.8357 87.379 17.803C87.379 18.4605 87.1178 19.091 86.6529 19.5559C86.188 20.0208 85.5575 20.282 84.9 20.282C84.2425 20.282 83.612 20.0208 83.1471 19.5559C82.6822 19.091 82.421 18.4605 82.421 17.803C82.421 16.8161 82.1283 15.8513 81.58 15.0307C81.0317 14.2101 80.2524 13.5705 79.3406 13.1928C78.4288 12.8152 77.4255 12.7163 76.4575 12.9089C75.4895 13.1014 74.6004 13.5767 73.9025 14.2745C73.2047 14.9724 72.7294 15.8615 72.5369 16.8295C72.3443 17.7975 72.4432 18.8008 72.8208 19.7126C73.1985 20.6244 73.8381 21.4037 74.6587 21.952C75.4793 22.5003 76.4441 22.793 77.431 22.793C82.926 22.793 87.381 27.247 87.381 32.741C87.381 38.236 82.926 42.691 77.431 42.691V42.687H77.432Z" fill="#FEEF62"/>
<path d="M77.432 52.646C77.1064 52.6461 76.7839 52.5821 76.483 52.4576C76.1822 52.3331 75.9088 52.1505 75.6785 51.9203C75.4482 51.6901 75.2655 51.4167 75.1408 51.1159C75.0162 50.8151 74.952 50.4926 74.952 50.167V2.866C74.952 2.2084 75.2133 1.57773 75.6783 1.11273C76.1432 0.647737 76.7739 0.386505 77.4315 0.386505C78.0891 0.386505 78.7198 0.647737 79.1848 1.11273C79.6498 1.57773 79.911 2.2084 79.911 2.866V50.167C79.911 51.537 78.801 52.647 77.431 52.647L77.432 52.646Z" fill="#FEEF62"/>
<path d="M104.818 149.743H45.068C44.7424 149.743 44.4199 149.679 44.119 149.555C43.8182 149.43 43.5447 149.247 43.3144 149.017C43.0841 148.787 42.9015 148.514 42.7768 148.213C42.6522 147.912 42.588 147.59 42.588 147.264V50.16C42.588 48.791 43.698 47.681 45.068 47.681H104.818C106.188 47.681 107.298 48.791 107.298 50.161V147.265C107.298 148.635 106.188 149.745 104.818 149.745V149.743ZM47.546 144.782H102.336V52.646H47.546V144.782Z" fill="#005268"/>
<path d="M144.651 149.743H104.818C104.161 149.743 103.53 149.482 103.065 149.017C102.6 148.552 102.339 147.921 102.339 147.264V82.528C102.339 81.158 103.449 80.048 104.819 80.048H144.651C146.021 80.048 147.131 81.158 147.131 82.528V147.264C147.131 148.634 146.021 149.744 144.651 149.744V149.743ZM107.297 144.786H142.172V85.01H107.297V144.786V144.786ZM45.067 149.743H5.23398C4.57755 149.741 3.94886 149.478 3.48582 149.013C3.02277 148.547 2.76318 147.917 2.76398 147.261V82.524C2.76398 81.154 3.87298 80.044 5.24198 80.044H45.067C46.437 80.044 47.547 81.154 47.547 82.524V147.261C47.5474 147.587 47.4835 147.91 47.359 148.211C47.2346 148.512 47.0519 148.786 46.8216 149.016C46.5913 149.247 46.3177 149.43 46.0167 149.554C45.7156 149.679 45.3929 149.743 45.067 149.743V149.743ZM7.71298 144.786H42.588V85.01H7.71298V144.785V144.786Z" fill="#005268"/>
<path d="M5.234 85.01H2.744C2.41433 85.0166 2.08665 84.9574 1.78014 84.8358C1.47364 84.7143 1.19447 84.5327 0.958984 84.3019C0.723495 84.0711 0.536418 83.7957 0.408705 83.4917C0.280992 83.1877 0.21521 82.8612 0.21521 82.5315C0.21521 82.2018 0.280992 81.8753 0.408705 81.5714C0.536418 81.2674 0.723495 80.9919 0.958984 80.7611C1.19447 80.5303 1.47364 80.3488 1.78014 80.2272C2.08665 80.1056 2.41433 80.0464 2.744 80.053H5.234C5.89147 80.053 6.52201 80.3142 6.98691 80.7791C7.45182 81.244 7.713 81.8745 7.713 82.532C7.713 83.1895 7.45182 83.82 6.98691 84.2849C6.52201 84.7498 5.89147 85.011 5.234 85.011V85.01ZM147.142 85.01H144.652C144.322 85.0166 143.995 84.9574 143.688 84.8358C143.382 84.7143 143.102 84.5327 142.867 84.3019C142.632 84.0711 142.444 83.7957 142.317 83.4917C142.189 83.1877 142.123 82.8612 142.123 82.5315C142.123 82.2018 142.189 81.8753 142.317 81.5714C142.444 81.2674 142.632 80.9919 142.867 80.7611C143.102 80.5303 143.382 80.3488 143.688 80.2272C143.995 80.1056 144.322 80.0464 144.652 80.053H147.142C147.799 80.053 148.43 80.3142 148.895 80.7791C149.36 81.244 149.621 81.8745 149.621 82.532C149.621 83.1895 149.36 83.82 148.895 84.2849C148.43 84.7498 147.799 85.011 147.142 85.011V85.01ZM109.796 52.646H40.086C39.4285 52.646 38.798 52.3848 38.3331 51.9199C37.8682 51.455 37.607 50.8245 37.607 50.167C37.607 49.5095 37.8682 48.879 38.3331 48.4141C38.798 47.9492 39.4285 47.688 40.086 47.688H109.796C110.453 47.688 111.084 47.9492 111.549 48.4141C112.014 48.879 112.275 49.5095 112.275 50.167C112.275 50.8245 112.014 51.455 111.549 51.9199C111.084 52.3848 110.453 52.646 109.796 52.646V52.646ZM64.982 75.055H60C58.6822 75.0539 57.4187 74.53 56.4868 73.5982C55.555 72.6663 55.0311 71.4028 55.03 70.085V65.104C55.0311 63.7862 55.555 62.5227 56.4868 61.5909C57.4187 60.659 58.6822 60.1351 60 60.134H64.978C66.2958 60.1351 67.5593 60.659 68.4911 61.5909C69.423 62.5227 69.9469 63.7862 69.948 65.104V70.082C69.9477 71.3996 69.4247 72.6633 68.4936 73.5957C67.5626 74.528 66.2996 75.0529 64.982 75.055ZM60 65.096V70.086H64.99V65.104L60 65.096ZM89.882 75.055H84.9C83.5822 75.0539 82.3187 74.53 81.3868 73.5982C80.455 72.6663 79.9311 71.4028 79.93 70.085V65.104C79.9311 63.7862 80.455 62.5227 81.3868 61.5909C82.3187 60.659 83.5822 60.1351 84.9 60.134H89.882C91.1998 60.1351 92.4633 60.659 93.3951 61.5909C94.327 62.5227 94.8509 63.7862 94.852 65.104V70.082C94.8517 71.4003 94.3281 72.6646 93.3962 73.5971C92.4643 74.5296 91.2003 75.0539 89.882 75.055V75.055ZM84.904 65.096V70.086H89.894V65.104L84.904 65.096ZM64.982 94.97H60C58.6829 94.9679 57.4204 94.4435 56.4894 93.5117C55.5585 92.58 55.0351 91.3171 55.034 90V85.022C55.0351 83.7049 55.5585 82.442 56.4894 81.5103C57.4204 80.5786 58.6829 80.0541 60 80.052H64.978C66.2958 80.0531 67.5593 80.577 68.4911 81.5089C69.423 82.4407 69.9469 83.7042 69.948 85.022V90C69.9469 91.3171 69.4235 92.58 68.4926 93.5117C67.5616 94.4435 66.2991 94.9679 64.982 94.97ZM60 85.01V90H64.99V85.022L60 85.011V85.01ZM89.882 94.97H84.9C83.5822 94.9689 82.3187 94.445 81.3868 93.5132C80.455 92.5813 79.9311 91.3178 79.93 90V85.022C79.9311 83.7042 80.455 82.4407 81.3868 81.5089C82.3187 80.577 83.5822 80.0531 84.9 80.052H89.882C91.1998 80.0531 92.4633 80.577 93.3951 81.5089C94.327 82.4407 94.8509 83.7042 94.852 85.022V90C94.8509 91.3178 94.327 92.5813 93.3951 93.5132C92.4633 94.445 91.1998 94.9689 89.882 94.97V94.97ZM84.904 85.01V90H89.894V85.022L84.904 85.011V85.01ZM64.982 114.868H60C58.6822 114.867 57.4187 114.343 56.4868 113.411C55.555 112.479 55.0311 111.216 55.03 109.898V104.937C55.0318 103.62 55.5562 102.357 56.4879 101.426C57.4196 100.495 58.6827 99.9711 60 99.97H64.978C66.2958 99.9711 67.5593 100.495 68.4911 101.427C69.423 102.359 69.9469 103.622 69.948 104.94V109.917C69.9417 111.231 69.4159 112.488 68.4855 113.416C67.5551 114.343 66.2957 114.865 64.982 114.867V114.868ZM60 104.928V109.918H64.99V104.937L60 104.929V104.928ZM89.882 114.868H84.9C83.5822 114.867 82.3187 114.343 81.3868 113.411C80.455 112.479 79.9311 111.216 79.93 109.898V104.937C79.9311 103.619 80.455 102.356 81.3868 101.424C82.3187 100.492 83.5822 99.9681 84.9 99.967H89.882C91.1998 99.9681 92.4633 100.492 93.3951 101.424C94.327 102.356 94.8509 103.619 94.852 104.937V109.914C94.8467 111.229 94.3209 112.488 93.3895 113.417C92.4581 114.345 91.197 114.867 89.882 114.868V114.868ZM84.904 104.909V109.899H89.894V104.937L84.904 104.909V104.909ZM84.9 149.743H64.982C64.6564 149.743 64.3339 149.679 64.033 149.555C63.7321 149.43 63.4587 149.247 63.2284 149.017C62.9981 148.787 62.8154 148.514 62.6908 148.213C62.5662 147.912 62.502 147.59 62.502 147.264V124.855C62.502 123.486 63.612 122.376 64.982 122.376H84.9C86.27 122.376 87.379 123.486 87.379 124.856V147.261C87.3794 147.587 87.3156 147.909 87.1912 148.211C87.0668 148.512 86.8842 148.785 86.654 149.016C86.4237 149.246 86.1503 149.429 85.8494 149.554C85.5484 149.679 85.2258 149.743 84.9 149.743ZM67.46 144.786H82.421V127.338H67.464V144.786H67.461H67.46ZM74.94 42.687C69.45 42.68 65 38.231 64.993 32.739C64.993 32.0815 65.2542 31.451 65.7191 30.9861C66.184 30.5212 66.8145 30.26 67.472 30.26C68.1295 30.26 68.76 30.5212 69.2249 30.9861C69.6898 31.451 69.951 32.0815 69.951 32.739C69.9508 33.726 70.2433 34.6908 70.7915 35.5116C71.3397 36.3323 72.1189 36.972 73.0307 37.3499C73.9425 37.7277 74.9459 37.8267 75.9139 37.6343C76.8819 37.4418 77.7711 36.9667 78.4691 36.2688C79.1671 35.571 79.6424 34.6819 79.835 33.7139C80.0277 32.7459 79.9289 31.7425 79.5513 30.8307C79.1736 29.9188 78.534 29.1394 77.7134 28.591C76.8928 28.0427 75.928 27.75 74.941 27.75C69.447 27.75 64.993 23.296 64.993 17.803C64.993 12.309 69.447 7.85501 74.941 7.85501C80.435 7.85501 84.888 12.309 84.888 17.803C84.888 18.4605 84.6268 19.091 84.1619 19.5559C83.697 20.0208 83.0665 20.282 82.409 20.282C81.7515 20.282 81.121 20.0208 80.6561 19.5559C80.1912 19.091 79.93 18.4605 79.93 17.803C79.93 16.8161 79.6373 15.8513 79.089 15.0307C78.5407 14.2101 77.7614 13.5705 76.8496 13.1929C75.9378 12.8152 74.9345 12.7164 73.9665 12.9089C72.9985 13.1014 72.1094 13.5767 71.4115 14.2745C70.7137 14.9724 70.2384 15.8615 70.0459 16.8295C69.8533 17.7975 69.9522 18.8008 70.3298 19.7126C70.7075 20.6244 71.3471 21.4037 72.1677 21.952C72.9883 22.5004 73.9531 22.793 74.94 22.793C80.436 22.793 84.89 27.247 84.89 32.741C84.89 38.236 80.436 42.691 74.94 42.691V42.687V42.687Z" fill="#005268"/>
<path d="M74.94 52.646C74.2827 52.6457 73.6524 52.3844 73.1877 51.9196C72.723 51.4547 72.462 50.8243 72.462 50.167V2.86601C72.462 2.20854 72.7232 1.57799 73.1881 1.11309C73.653 0.648188 74.2835 0.387009 74.941 0.387009C75.5985 0.387009 76.229 0.648188 76.6939 1.11309C77.1588 1.57799 77.42 2.20854 77.42 2.86601V50.167C77.42 51.537 76.31 52.647 74.94 52.647V52.646ZM32.617 139.784H17.68C17.3544 139.784 17.0321 139.72 16.7313 139.595C16.4305 139.471 16.1573 139.288 15.9271 139.058C15.6969 138.828 15.5143 138.554 15.3897 138.254C15.2651 137.953 15.201 137.631 15.201 137.305V117.387C15.201 116.017 16.311 114.907 17.681 114.907H32.617C33.987 114.907 35.097 116.017 35.097 117.387V137.305C35.097 138.675 33.987 139.785 32.617 139.785V139.784ZM20.159 134.826H30.139V119.866H20.159V134.826ZM32.617 109.907H17.68C17.3544 109.907 17.0319 109.843 16.7311 109.718C16.4303 109.594 16.1569 109.411 15.9267 109.181C15.6965 108.95 15.5139 108.677 15.3894 108.376C15.2649 108.075 15.2009 107.753 15.201 107.427V92.492C15.201 91.122 16.311 90.012 17.681 90.012H32.617C33.987 90.012 35.097 91.122 35.097 92.492V107.429C35.097 108.798 33.987 109.908 32.617 109.908V109.907ZM20.159 104.949H30.139V94.969H20.159V104.949ZM132.201 139.784H117.264C116.607 139.784 115.976 139.522 115.512 139.058C115.047 138.593 114.786 137.962 114.786 137.305V117.387C114.786 116.017 115.896 114.907 117.264 114.907H132.201C133.571 114.907 134.681 116.017 134.681 117.387V137.305C134.681 138.675 133.571 139.785 132.201 139.785V139.784ZM119.743 134.826H129.723V119.866H119.743V134.826V134.826ZM132.201 109.907H117.264C116.938 109.907 116.616 109.843 116.315 109.718C116.015 109.593 115.741 109.411 115.511 109.18C115.281 108.95 115.099 108.677 114.974 108.376C114.85 108.075 114.786 107.753 114.786 107.427V92.492C114.786 91.122 115.896 90.012 117.264 90.012H132.201C133.571 90.012 134.681 91.122 134.681 92.492V107.429C134.681 108.798 133.571 109.908 132.201 109.908V109.907ZM119.743 104.949H129.723V94.969H119.743V104.949V104.949Z" fill="#005268"/>
<path fill-rule="evenodd" clip-rule="evenodd" d="M179.643 52L263.51 106.464L145.868 287.617L62 233.153L179.643 52Z" fill="#08595D"/>
<path d="M180.5 48.5L56.5 238.5" stroke="#005268" stroke-width="5" stroke-linecap="round"/>
<path d="M202.029 254.498H171.826L174.773 240.658H199.083L202.029 254.498ZM129.837 153.008H244.018V240.658H129.837V153.008Z" fill="#DFDFE3"/>
<path d="M131.679 154.853H242.177V224.48H131.679V154.853Z" fill="#08595D" stroke="#005268" stroke-width="2.765"/>
<path d="M186.928 234.754C188.657 234.754 190.059 233.35 190.059 231.617C190.059 229.884 188.657 228.48 186.928 228.48C185.199 228.48 183.797 229.884 183.797 231.617C183.797 233.35 185.199 234.754 186.928 234.754Z" fill="#005268"/>
<path d="M147.701 155.961H225.97V211.058H147.701V155.961Z" fill="white"/>
<path d="M245.864 242.504V151.163H128V242.503H172.567L170.357 252.653H166.674V256.343H207.19V252.653H203.507L201.297 242.503H245.864V242.504ZM174.041 252.653L176.251 242.503H197.614L199.824 252.653H174.04H174.041ZM131.683 154.853H145.863V213.671H227.816V154.853H242.181V238.813H131.683V154.853V154.853Z" fill="#005268"/>
<path d="M169.985 229.771H173.668V233.462H169.985V229.771ZM200.187 229.771H203.87V233.462H200.187V229.771Z" fill="#005268"/>
<path d="M160.408 166.663H196.504V170.354H160.408V166.663ZM202.213 166.663H213.447V170.354H202.213V166.663ZM174.405 179.765H213.448V183.456H174.405V179.765ZM160.408 179.765H168.511V183.456H160.408V179.765Z" fill="#193651"/>
<path d="M146.428 144.448H227.246V212.365H146.428V144.448Z" fill="#7AD832"/>
<path d="M152.945 150.978H220.729V205.833H152.945V150.978ZM146.428 131.389H227.246V144.449H146.428V131.389Z" fill="#F9F9F9"/>
<path d="M145.123 130.08V213.671H228.548V130.081H145.123V130.08ZM225.943 211.06H147.73V145.754H225.942V211.06H225.943ZM147.73 143.148V132.694H225.942V143.148H147.73Z" fill="#005268"/>
<path d="M152.945 136.613H155.551V139.224H152.945V136.613ZM160.636 136.613H163.242V139.224H160.636V136.613ZM168.327 136.613H170.933V139.224H168.327V136.613Z" fill="#005268"/>
<path fill-rule="evenodd" clip-rule="evenodd" d="M160.638 167.24H188.631V183.511H160.638V167.24ZM174.635 156.699H213.678V161.282H174.635V156.699ZM160.638 156.699H168.741V161.282H160.638V156.699Z" stroke="black" stroke-width="2.074"/>
<path d="M276.072 224.427C275.536 224.427 275.002 224.373 274.476 224.267C274.727 223.11 274.852 221.927 274.847 220.743C274.791 219.806 274.379 218.926 273.696 218.282C273.013 217.638 272.11 217.279 271.171 217.278C270.232 217.279 269.329 217.637 268.645 218.281C267.962 218.925 267.55 219.806 267.494 220.743C267.494 222.761 269.106 224.664 271.408 225.803C271.086 226.55 270.68 227.258 270.197 227.912C267.204 222.952 261.389 219.172 254.29 217.722C255.373 216.887 256.241 215.806 256.822 214.568C258.859 214.487 260.801 213.682 262.298 212.298C263.795 210.915 264.75 209.042 264.991 207.018C265.236 204.993 264.751 202.947 263.623 201.247C262.496 199.547 260.8 198.305 258.839 197.742C256.879 197.182 254.784 197.341 252.93 198.188C251.077 199.036 249.587 200.517 248.728 202.366C247.018 202.433 245.367 203.014 243.992 204.032C242.616 205.051 241.579 206.46 241.016 208.076C240.451 209.693 240.386 211.443 240.828 213.099C241.27 214.754 242.2 216.238 243.496 217.358C239.386 217.921 235.521 219.266 232.271 221.293C230.779 220.138 228.944 219.512 227.057 219.513C226.38 219.513 225.832 220.063 225.832 220.74C225.837 222.441 226.35 224.101 227.305 225.508C225.719 227.324 224.556 229.469 223.898 231.788H223.38C222.735 231.787 222.096 231.914 221.501 232.161C220.905 232.408 220.364 232.77 219.908 233.226C218.986 234.149 218.469 235.401 218.47 236.705C218.466 238.04 218.803 239.355 219.45 240.523C220.097 241.691 221.033 242.674 222.167 243.378L230.724 248.72V255.12C230.724 255.798 231.272 256.348 231.948 256.348H236.849C237.313 256.348 237.737 256.085 237.945 255.669L239.395 252.763C244.95 254.262 250.804 254.262 256.359 252.763L257.809 255.669C258.018 256.085 258.442 256.347 258.905 256.348H263.82C264.497 256.348 265.045 255.798 265.045 255.12V248.62C269.727 245.16 272.398 240.411 272.398 235.473C272.388 233.714 272.051 231.972 271.403 230.336C272.385 229.242 273.175 227.989 273.737 226.63C274.504 226.798 275.287 226.88 276.072 226.876C276.749 226.876 277.297 226.326 277.297 225.648C277.297 224.97 276.749 224.42 276.072 224.42V224.427V224.427ZM272.158 223.41C270.795 222.634 269.955 221.564 269.955 220.743C269.948 220.578 269.975 220.413 270.034 220.258C270.092 220.104 270.182 219.963 270.296 219.844C270.411 219.724 270.548 219.629 270.7 219.565C270.852 219.5 271.016 219.466 271.181 219.466C271.346 219.466 271.51 219.5 271.662 219.565C271.814 219.629 271.951 219.724 272.066 219.844C272.18 219.963 272.27 220.104 272.328 220.258C272.387 220.413 272.414 220.578 272.407 220.743C272.407 221.64 272.321 222.536 272.149 223.416L272.159 223.41H272.158Z" fill="#005268" stroke="#005268"/>
<path d="M256.465 212.149C259.848 212.149 262.591 209.401 262.591 206.011C262.591 202.621 259.848 199.873 256.465 199.873C253.082 199.873 250.339 202.621 250.339 206.011C250.339 209.401 253.082 212.149 256.465 212.149Z" fill="#FFCE00"/>
<path d="M242.987 210.922C242.989 209.493 243.491 208.109 244.406 207.011C245.321 205.913 246.592 205.17 247.998 204.911C247.937 205.274 247.901 205.641 247.888 206.009C247.89 206.621 247.958 207.231 248.09 207.829C247.964 208.017 247.893 208.238 247.888 208.465V213.375C247.88 213.541 247.905 213.707 247.963 213.863C248.021 214.019 248.11 214.161 248.225 214.282C248.339 214.402 248.477 214.498 248.63 214.563C248.783 214.629 248.947 214.663 249.114 214.663C249.28 214.663 249.444 214.629 249.597 214.563C249.75 214.498 249.888 214.402 250.002 214.282C250.117 214.161 250.206 214.019 250.264 213.863C250.322 213.707 250.347 213.541 250.339 213.375V212.005C251.403 213.086 252.736 213.865 254.2 214.262C253.488 215.373 252.433 216.222 251.197 216.681C249.96 217.141 248.607 217.185 247.342 216.809C246.077 216.431 244.969 215.653 244.183 214.591C243.398 213.53 242.978 212.242 242.987 210.922V210.922Z" fill="#FFCA28"/>
<path d="M242.987 210.922C242.989 209.493 243.491 208.109 244.406 207.011C245.321 205.913 246.592 205.17 247.998 204.911C247.937 205.274 247.901 205.641 247.888 206.009C247.89 206.621 247.958 207.231 248.09 207.829C247.964 208.017 247.893 208.238 247.888 208.465V213.375C247.88 213.541 247.905 213.707 247.963 213.863C248.021 214.019 248.11 214.161 248.225 214.282C248.339 214.402 248.477 214.498 248.63 214.563C248.783 214.629 248.947 214.663 249.114 214.663C249.28 214.663 249.444 214.629 249.597 214.563C249.75 214.498 249.888 214.402 250.002 214.282C250.117 214.161 250.206 214.019 250.264 213.863C250.322 213.707 250.347 213.541 250.339 213.375V212.005C251.403 213.086 252.736 213.865 254.2 214.262C253.488 215.373 252.433 216.222 251.197 216.681C249.96 217.141 248.607 217.185 247.342 216.809C246.077 216.431 244.969 215.653 244.183 214.591C243.398 213.53 242.978 212.242 242.987 210.922V210.922Z" fill="#FFCE00"/>
<path opacity="0.39" d="M250.34 212.006V213.376C250.347 213.541 250.32 213.706 250.261 213.861C250.203 214.015 250.113 214.156 249.999 214.275C249.884 214.395 249.747 214.49 249.595 214.554C249.443 214.619 249.279 214.653 249.114 214.653C248.949 214.653 248.785 214.619 248.633 214.554C248.481 214.49 248.344 214.395 248.229 214.275C248.115 214.156 248.025 214.015 247.967 213.861C247.908 213.706 247.881 213.541 247.888 213.376V208.466C247.893 208.238 247.964 208.017 248.09 207.829C247.958 207.231 247.89 206.621 247.888 206.009C247.901 205.641 247.938 205.274 247.998 204.911C247.265 205.051 246.563 205.321 245.926 205.711C245.611 206.596 245.445 207.526 245.434 208.465C245.447 210.273 246.026 212.031 247.089 213.493C248.152 214.955 249.647 216.047 251.362 216.617C252.527 216.143 253.516 215.32 254.195 214.262C252.733 213.865 251.402 213.086 250.339 212.006H250.34Z" fill="#FFA21A"/>
<path d="M256.465 209.692C257.142 209.692 257.69 209.142 257.69 208.465V203.555C257.697 203.39 257.67 203.225 257.611 203.07C257.553 202.916 257.463 202.775 257.349 202.656C257.234 202.536 257.097 202.441 256.945 202.377C256.793 202.312 256.629 202.278 256.464 202.278C256.299 202.278 256.135 202.312 255.983 202.377C255.831 202.441 255.694 202.536 255.579 202.656C255.465 202.775 255.375 202.916 255.317 203.07C255.258 203.225 255.231 203.39 255.238 203.555V208.465C255.238 208.79 255.368 209.102 255.598 209.332C255.828 209.562 256.14 209.692 256.465 209.692Z" fill="#005268"/>
<path d="M263.13 246.978C262.967 247.091 262.834 247.242 262.742 247.418C262.65 247.594 262.602 247.79 262.602 247.988V253.893H259.677L258.104 250.745C257.975 250.483 257.756 250.276 257.488 250.162C257.219 250.048 256.918 250.034 256.64 250.122C250.938 251.864 244.847 251.864 239.145 250.122C238.867 250.034 238.566 250.049 238.298 250.163C238.03 250.277 237.811 250.484 237.681 250.745L236.108 253.893H233.185V248.039C233.185 247.615 232.966 247.221 232.607 246.997L223.472 241.295C222.694 240.809 222.052 240.133 221.609 239.329C221.166 238.526 220.936 237.622 220.94 236.705C220.942 236.057 221.2 235.437 221.658 234.978C222.115 234.52 222.735 234.26 223.383 234.257H224.872C225.458 234.257 225.962 233.842 226.074 233.266C226.534 230.848 227.828 228.486 229.787 226.436C230.227 225.976 230.243 225.256 229.824 224.777C229.154 224.025 228.68 223.12 228.442 222.141C229.525 222.397 230.518 222.943 231.313 223.721C231.515 223.919 231.779 224.04 232.06 224.064C232.341 224.089 232.622 224.015 232.855 223.855C236.962 221.064 242.294 219.525 247.888 219.525C260.049 219.525 269.944 226.675 269.944 235.487C269.946 239.839 267.522 243.924 263.13 246.978V246.978Z" fill="#FDD1B0"/>
<path d="M263.13 246.978C262.967 247.091 262.834 247.242 262.742 247.418C262.65 247.594 262.602 247.79 262.602 247.988V253.893H259.677L258.104 250.745C257.975 250.483 257.756 250.276 257.488 250.162C257.219 250.048 256.918 250.034 256.64 250.122C250.938 251.864 244.847 251.864 239.145 250.122C238.867 250.034 238.566 250.049 238.298 250.163C238.03 250.277 237.811 250.484 237.681 250.745L236.108 253.893H233.185V248.039C233.185 247.615 232.966 247.221 232.607 246.997L223.472 241.295C222.694 240.809 222.052 240.133 221.609 239.329C221.166 238.526 220.936 237.622 220.94 236.705C220.942 236.057 221.2 235.437 221.658 234.978C222.115 234.52 222.735 234.26 223.383 234.257H224.872C225.458 234.257 225.962 233.842 226.074 233.266C226.534 230.848 227.828 228.486 229.787 226.436C230.227 225.976 230.243 225.256 229.824 224.777C229.154 224.025 228.68 223.12 228.442 222.141C229.525 222.397 230.518 222.943 231.313 223.721C231.515 223.919 231.779 224.04 232.06 224.064C232.341 224.089 232.622 224.015 232.855 223.855C236.962 221.064 242.294 219.525 247.888 219.525C260.049 219.525 269.944 226.675 269.944 235.487C269.946 239.839 267.522 243.924 263.13 246.978V246.978Z" fill="#08595D"/>
<path d="M230.733 229.337C229.741 229.337 228.847 229.936 228.468 230.854C228.282 231.303 228.234 231.796 228.328 232.273C228.423 232.749 228.656 233.187 228.999 233.531C229.342 233.874 229.778 234.108 230.254 234.203C230.73 234.298 231.223 234.249 231.671 234.063C232.195 233.845 232.628 233.452 232.896 232.952C233.163 232.451 233.249 231.873 233.138 231.316C233.028 230.759 232.728 230.257 232.289 229.896C231.851 229.536 231.301 229.338 230.733 229.337V229.337Z" fill="#005268"/>
<path opacity="0.2" d="M229.787 226.415C229.557 226.662 229.357 226.927 229.14 227.183C233.855 224.699 239.96 223.188 246.663 223.188C255.781 223.188 263.827 225.979 268.705 230.239C265.712 224.012 257.517 219.504 247.888 219.504C242.301 219.504 236.962 221.041 232.855 223.834C232.375 224.164 231.73 224.108 231.313 223.7C230.518 222.922 229.526 222.376 228.443 222.12C228.68 223.099 229.154 224.004 229.823 224.757C230.025 224.988 230.133 225.286 230.127 225.593C230.12 225.9 229.999 226.193 229.787 226.415V226.415Z" fill="white"/>
<path opacity="0.1" d="M246.05 247.753C239.425 247.753 233.341 246.501 228.477 244.416L232.609 246.994C232.969 247.218 233.187 247.613 233.187 248.037V253.891H236.104L237.676 250.743C237.945 250.203 238.566 249.938 239.14 250.12C244.842 251.862 250.934 251.862 256.636 250.12C256.914 250.031 257.215 250.046 257.484 250.16C257.752 250.274 257.971 250.481 258.1 250.743L259.677 253.893H262.596V247.988C262.596 247.586 262.792 247.208 263.123 246.978C264.998 245.707 266.607 244.083 267.86 242.197C262.577 245.594 254.775 247.752 246.05 247.752V247.753Z" fill="black"/>
<path d="M256.847 223.26C251.718 221.573 244.057 221.573 238.928 223.26C238.618 223.361 238.362 223.582 238.215 223.872C238.068 224.163 238.042 224.5 238.143 224.809C238.245 225.119 238.465 225.376 238.756 225.523C239.046 225.67 239.383 225.695 239.693 225.594C244.336 224.067 251.433 224.067 256.083 225.594C256.252 225.65 256.431 225.668 256.607 225.648C256.784 225.628 256.954 225.569 257.106 225.477C257.258 225.384 257.387 225.26 257.486 225.112C257.585 224.964 257.65 224.797 257.678 224.621C257.724 224.332 257.666 224.037 257.514 223.787C257.362 223.538 257.126 223.351 256.848 223.26H256.847Z" fill="#005268"/>
<path fill-rule="evenodd" clip-rule="evenodd" d="M204.11 184.6C199.748 184.6 196.213 188.144 196.213 192.516C196.213 196.888 199.748 200.432 204.11 200.432C208.471 200.432 212.007 196.888 212.007 192.516C212.007 190.416 211.175 188.403 209.694 186.918C208.961 186.183 208.091 185.6 207.133 185.203C206.175 184.805 205.147 184.6 204.11 184.6V184.6Z" fill="white"/>
</svg>
