<svg width="230" height="230" viewBox="0 0 230 230" fill="none" xmlns="http://www.w3.org/2000/svg">
<path d="M166.542 45.178L174.132 37.588L192.667 56.122L185.077 63.712L166.542 45.178Z" fill="#81CC3B"/>
<path d="M50.969 225.318L4.93701 179.283C22.422 158.53 29.886 150.262 40.319 140.637L89.615 189.933C79.986 200.366 71.389 208.262 50.969 225.318V225.318ZM134.088 78.437C111.144 95.19 102.419 91.731 75.365 111.13L119.1 154.869C138.411 127.889 135.002 119.146 151.807 96.168L137.876 92.379L134.088 78.437V78.437Z" fill="#7AD832"/>
<path d="M175.209 53.843L182.799 46.253L192.669 56.12L185.077 63.711L175.209 53.843ZM50.969 225.318C71.389 208.262 79.986 200.369 89.597 189.933L64.365 164.686L27.348 201.698L50.968 225.318H50.969ZM119.1 154.869C138.411 127.889 135.002 119.146 151.807 96.168L137.876 92.379L137.617 91.433L96.643 132.408L119.1 154.869V154.869Z" fill="#7BBA38"/>
<path d="M119.1 154.869C113.019 163.374 103.83 174.524 89.611 189.954L40.316 140.658C55.728 126.433 66.895 117.236 75.365 111.151L119.1 154.87V154.869ZM168.885 47.524C153.915 62.494 142.94 71.977 134.084 78.437L137.872 92.379L151.804 96.168C158.285 87.308 167.751 76.322 182.728 61.37L168.885 47.524V47.524Z" fill="#FEEF6B"/>
<path d="M189.939 33.555L206.032 17.462L211.831 23.261L195.738 39.354L189.939 33.555ZM205.778 55.904L227.136 48.054L229.966 55.752L208.607 63.602L205.778 55.904ZM166.645 21.657L174.495 0.299011L182.192 3.12801L174.342 24.486L166.645 21.657Z" fill="#FEEF6B"/>
<path d="M161.698 45.178L164.034 47.513C151.52 59.893 141.048 69.106 132.067 75.67C121.247 83.573 113.678 86.85 105.662 90.32C97.288 93.95 88.651 97.695 75.748 106.668L73.359 108.348L70.081 110.698L70.113 110.73C61.883 116.9 52.11 125.178 40.404 135.891L37.987 138.124L35.368 140.541C25.736 149.674 17.787 158.675 2.29298 177.065L0.268982 179.47L50.763 229.95L53.159 227.944C71.878 212.311 80.78 204.281 89.689 194.858L92.106 192.238L94.336 189.822C105.038 178.127 113.313 168.338 119.497 160.099L119.529 160.131L121.879 156.849L121.9 156.821L123.57 154.489C132.471 141.674 136.214 133.059 139.836 124.72C143.326 116.675 146.626 109.077 154.578 98.204C161.145 89.224 170.378 78.744 182.745 66.234L185.081 68.57L197.513 56.138L174.123 32.748L161.698 45.177V45.178ZM51.174 220.68L9.56998 179.088C24.628 161.266 31.8 153.363 40.22 145.4L81.468 186.63L84.853 190.014C76.486 198.874 68.119 206.483 51.175 220.68H51.174ZM89.509 184.992L45.263 140.743C57.082 129.934 66.881 121.673 75.032 115.627L94.824 135.42L114.607 155.223C108.561 163.374 100.293 173.17 89.509 184.993V184.992ZM133.549 121.982C130.157 129.778 126.663 137.848 118.639 149.564L80.67 111.594C92.468 103.504 100.548 100.002 108.384 96.607C115.734 93.417 122.729 90.395 132.064 84.051L135.087 95.165L146.187 98.185C139.8 107.572 136.749 114.596 133.545 121.978L133.549 121.982V121.982ZM150.453 92.252L140.669 89.59L138.007 79.795C146.827 73.15 156.971 64.138 168.882 52.361L177.904 61.373C166.124 73.281 157.105 83.423 150.45 92.248L150.453 92.252V92.252ZM185.077 58.875L171.384 45.178L174.134 42.431L187.827 56.121L185.077 58.875Z" fill="#005268"/>
<path d="M71.438 40.493H78.288V35.822H82.959V28.975H78.289V24.305H71.439V28.975H66.767V35.822H71.438V40.493ZM212.847 148.944H205.997V153.614H201.327V160.464H205.997V165.132H212.847V160.465H217.518V153.615H212.848L212.847 148.944ZM137.794 189.543H130.944V194.213H126.274V201.063H130.944V205.735H137.794V201.064H142.465V194.214H137.795L137.794 189.543ZM15.788 110.202H23.989V118.402H15.789L15.788 110.202ZM167.38 133.202H175.58V141.402H167.38V133.202ZM37.491 77.899H45.692V86.099H37.492L37.491 77.899Z" fill="#FEEF6B"/>
<path d="M51.071 216.565L38.047 203.541L42.892 198.697L51.443 207.248L64.549 196.085L68.989 201.298L51.071 216.565ZM27.963 193.453L33.763 187.653L40.37 194.262L34.571 200.061L27.963 193.453Z" fill="white"/>
</svg>
